<?xml version="1.0" encoding="UTF-8" standalone="no"?>
<svg id="svg2" xmlns:rdf="http://www.w3.org/1999/02/22-rdf-syntax-ns#" xmlns="http://www.w3.org/2000/svg" height="621.56mm" width="463.66mm" version="1.1" xmlns:cc="http://creativecommons.org/ns#" xmlns:xlink="http://www.w3.org/1999/xlink" viewBox="0 0 1642.8909 2202.3831" xmlns:dc="http://purl.org/dc/elements/1.1/">
<g id="layer1" transform="translate(-253.05 -87.661)">
<g id="g4281">
<path id="path4147" d="m270.9 105.51c-1.5082 1.5082 2.8814 4.1538 5.4814 7.2658 9.3466 11.616 17.83 24.139 23.533 36.568 5.2289 11.357 6.7049 25.224 3.7607 35.348-2.4865 8.5503-9.4355 23.16-12.463 26.202-23.071 23.184 2.5558 66.665 30.842 52.331 5.5542-2.8146 7.335-6.6015 3.1046-6.6015-9.0283-0.00001-13.737-11.98-8.6551-22.024 7.7212-15.262 31.712-13.882 42.143 2.4238 6.9614 11.393 10.279 24.76 8.5322 35.712-2.7169 12.869-16.51 19.575-25.376 15.918-15.518-6.4012-12.213-1.785 26.068 36.42 39.032 38.955 38.532 38.613 38.227 26.3-0.45952-18.508 6.5979-24.298 29.446-24.159 17.569 0.1065 16.673-0.53826 16.972 12.216l0.23893 10.183 5.9994 0.00001-0.66982-12.934c-0.83457-16.097 1.1582-14.953-20.42-15.117-26.757-0.2036-36.409 5.9035-36.409 23.032 0 7.0076-0.66591 6.7273-10.5-4.4098-3.3-3.7372-10.022-10.678-14.94-15.424-4.9179-4.7458-9.7882-9.5287-10.822-10.629-1.0338-1.1-5.2226-5.452-9.3084-9.6702-8.5386-8.815-8.7374-9.3627-3.7261-10.303 18.7-3.5081 24.71-19.186 17.715-46.22-9.2305-35.676-61.457-39.093-61.413-4.0189 0.005 3.9692 0.68509 5.4961 5.4165 12.173 3.2175 4.5402-0.45099 5.3198-11.421 2.4279-13.888-3.6611-18.973-29.393-8.343-42.215 5.4753-8.5404 14.104-15.067 22.843-18.747 47.534-19.222 104.71 57.207 74.931 100.17-5.0155 7.2374-0.98874 11.685 5.8861 6.5021 9.7017-7.3144 14.84-8.4223 39.684-8.5516 13.388-0.0697 16.457 1.5693 22.026-1.7889 2.3859-4.5968 1.7192-8.6379 1.7889-22.026 0.1293-24.844 1.2372-29.982 8.5516-39.684 5.1832-6.8748 0.73534-10.902-6.5021-5.8861-42.964 29.774-119.39-27.397-100.17-74.931 4.7579-11.797 11.048-16.515 18.747-22.843 12.822-10.63 38.554-5.5452 42.215 8.343 2.8919 10.97 2.1123 14.639-2.4279 11.421-6.6766-4.7314-8.2035-5.4115-12.173-5.4165-35.074-0.0438-31.657 52.183 4.0189 61.413 27.034 6.9946 42.712 0.98499 46.22-17.715 0.94009-5.0113 1.4878-4.8125 10.303 3.7261 4.2182 4.0858 8.5703 8.2746 9.6702 9.3084 1.1 1.0338 5.8829 5.9041 10.629 10.822 4.7457 4.9179 11.687 11.64 15.424 14.94 11.137 9.8343 11.417 10.5 4.4098 10.5-17.129 0-23.236 9.6517-23.032 36.409 0.1641 21.579-0.97972 19.586 15.117 20.42l12.934 0.66982-0.00001-5.9994-10.183-0.23893c-12.754-0.29886-12.109 0.59687-12.216-16.972-0.13851-22.848 5.6512-29.905 24.159-29.446 12.313 0.30573 12.655 0.80496-26.3-38.227-38.205-38.28-42.821-41.586-36.42-26.068 3.6571 8.8656-3.0496 22.659-15.918 25.376-10.952 1.7471-24.318-1.5708-35.712-8.5322-16.306-10.431-17.685-34.422-2.4238-42.143 10.044-5.0815 22.024-0.37317 22.024 8.6551 0 4.2304 3.7869 2.4496 6.6015-3.1046 14.334-28.286-29.148-53.913-52.331-30.842-3.042 3.0273-17.651 9.9763-26.202 12.463-10.125 2.9443-23.992 1.4682-35.348-3.7607-13.307-5.6313-25.425-14.397-36.568-23.533-3.112-2.6001-5.7576-6.9897-7.2658-5.4814zm24.562 24.562c27.911 15.702 38.357 18.062 57.695 13.209 9.1617-2.2993 9.1398-2.3194 5.6679 5.3337-5.3111 11.707-4.9264 30.758 0.86178 42.639 1.1426 2.3452 1.7305 3.9331 1.7678 4.8116-0.87856-0.0372-2.4664-0.62518-4.8116-1.7678-11.881-5.7882-30.932-6.1729-42.639-0.86178-7.6531 3.4719-7.633 3.4938-5.3337-5.6679 4.8533-19.339 2.4931-29.784-13.209-57.695zm102.61 103.38c2.5459-3.4424 9.0209-0.20746 11.706 0.82036 10.824 4.242 40.083 5.7378 46.575 2.381 2.8233-1.4599 3.0278-0.3752 1.0165 5.3972-1.5625 4.4844-1.8506 8.426-1.8506 25.224l-0.001 19.908c-0.0988 2.9312-0.0988 2.9312-2.9417 2.9417l-19.908 0.001c-16.798 0-20.739 0.28814-25.224 1.8506-5.7724 2.0113-6.8571 1.8068-5.3972-1.0165 3.3569-6.4917 1.8611-35.751-2.381-46.575-2.2544-5.7524-2.6787-9.954-1.5938-10.933zm87.68 103.65c0 7.9239 0.008 12.512 0.008 12.512h5.9994s-0.12217-7.0044-1.1932-16.048c-0.23142-5.5806 4.0563-8.8824 8.3914-8.3914 9.0436 1.0711 16.048 1.1932 16.048 1.1932v-5.9994s-4.5886-0.008-12.512-0.008c-5.1329 0.5118-9.9514-0.19274-13.639 3.1019-3.383 3.7764-3.1068 10.372-3.1019 13.639z"/>
<path id="path4160" d="m532.02 87.661c-2.3772 0.04744-1.7332 3.739 2.4258 9.7012 12.528 17.96 18.868 42.284 19.027 73 0.1319 25.495 2.3682 32.818 13.949 45.699 5.6008 6.2294 5.5988 6.0273 0.11719 10.609-8.07 6.74-14.54 23.6-14.54 37.86-0.0124 4.983-0.73466 10.049-5.7812 15.145-4.6063 6.1849-9.412 7.6836-21.68 7.6836h-10.539v3 3h9.9102c21.213 0 34.176-10.404 34.635-27.801 0.5525-20.952 11.969-41.199 23.23-41.199 6.9806 0 5.4921-4.9158-2.1504-7.1035-13.761-3.9392-21.089-19.272-21.219-44.396-0.0513-9.9-0.59187-20.25-1.2012-23-0.6093-2.75-1.8303-8.375-2.7129-12.5-0.8827-4.125-1.9813-9.075-2.4414-11-1.1688-4.8907-6.1156-18.303-7.1738-19.449-3.0046-3.2554-0.34952-5.4781 3.2383-2.7109 2.4707 1.9055 17.378 8.9363 24.385 11.5 20.387 7.4595 28.061 9.4454 41 10.609 19.026 1.7117 31.807 7.0074 37.662 15.605 1.349 1.981 2.0503 3.0173 2.7129 3.1348 0.66257-0.11744 1.3639-1.1537 2.7129-3.1348 5.8548-8.5981 18.636-13.894 37.662-15.605 12.939-1.164 20.613-3.1499 41-10.609 7.0066-2.5637 21.914-9.5945 24.385-11.5 3.5878-2.7672 6.2429-0.54444 3.2383 2.7109-1.0582 1.1465-6.005 14.559-7.1738 19.449-0.4601 1.925-1.5587 6.875-2.4414 11-0.8826 4.125-2.1036 9.75-2.7129 12.5s-1.1499 13.1-1.2012 23c-0.1302 25.125-7.458 40.457-21.219 44.396-7.6425 2.1877-9.131 7.1035-2.1504 7.1035 11.261 0 22.678 20.247 23.23 41.199 0.4587 17.397 13.421 27.801 34.635 27.801h9.9102v-3-3h-10.539c-12.268 0-17.073-1.4987-21.68-7.6836-5.0466-5.0959-5.7688-10.162-5.7812-15.145 0-14.263-6.4739-31.123-14.537-37.863-5.4816-4.5821-5.4836-4.3799 0.11719-10.609 11.581-12.881 13.817-20.204 13.949-45.699 0.1589-30.716 6.4988-55.04 19.027-73 4.159-5.9621 4.8029-9.6538 2.4258-9.7012-1.0805-0.02157-2.7854 0.71044-5.0684 2.3242-2.2395 1.583-5.7626 3.8062-7.8281 4.9414s-5.0663 2.9727-6.6699 4.084c-13.459 9.3268-41.213 18.913-60.416 20.865-19.977 2.031-35.028 7.6214-41.02 15.238l-1.8555 2.3613-1.8555-2.3613c-6-7.61-21.05-13.2-41.03-15.23-19.203-1.9523-46.957-11.538-60.416-20.865-1.6036-1.1113-4.6044-2.9488-6.6699-4.084s-5.5886-3.3584-7.8281-4.9414c-2.283-1.6138-3.9878-2.3458-5.0684-2.3242zm49.34 54.105c-0.0856-0.007-0.1655-0.002-0.24023 0.0137-1.3153 0.28279-0.9444 4.088 1.4766 9.3809 3.4239 7.4854 4.7289 15.889 4.0078 25.793-1.2613 17.322 8.4275 30.771 23.398 32.48 33.022 3.7711 47.74-39.749 18-53.223-11.591-5.2205-29.104-2.979-44.078-12.443-1.1025-1.3284-1.9655-1.9527-2.5645-2.002zm147.04 0c-0.59899 0.0492-1.462 0.67358-2.5645 2.002-14.974 9.4644-32.487 7.2228-44.078 12.443-29.74 13.474-15.022 56.994 18 53.223 14.971-1.7097 24.66-15.159 23.398-32.48-0.7211-9.904 0.58391-18.308 4.0078-25.793 2.421-5.2928 2.7919-9.0981 1.4766-9.3809-0.0747-0.0161-0.15466-0.0207-0.24023-0.0137zm-137.4 12.061c1.0808-0.0567 2.6467 0.24138 4.666 0.9043 2.6619 0.87387 9.4774 2.2774 15.145 3.1191 29.081 4.3194 37.469 25.044 16.945 41.861-5.8066 4.7385-19.513 6.3367-27.061-1.3496-6.4877-5.9294-8.8401-11.068-8.6445-18.889 0.1882-7.5276-1.0922-20.17-2.2754-22.469-1.0322-2.0058-0.57664-3.0833 1.2246-3.1777zm127.76 0c1.8012 0.0944 2.2568 1.1719 1.2246 3.1777-1.1832 2.2992-2.4636 14.941-2.2754 22.469 0.1956 7.8205-2.1568 12.959-8.6445 18.889-7.5477 7.6863-21.254 6.0881-27.061 1.3496-20.524-16.818-12.136-37.542 16.945-41.861 5.6671-0.84173 12.483-2.2453 15.145-3.1191 2.0193-0.66292 3.5853-0.9609 4.666-0.9043zm-63.88 56.07c-0.80831 0.1914-1.9662 2.2127-2.8106 4.9629-3.3541 10.925-13.566 17.577-28.564 18.607-26.082 1.7912-42.2 16.503-37.828 34.529 4.9335 20.344 12.628 25.361 40.328 26.303 10.856 0.36899 20.364 0.61264 28.875 0.71875 8.5113-0.10611 18.019-0.34976 28.875-0.71875 27.701-0.94154 35.395-5.9592 40.328-26.303 4.3716-18.026-11.746-32.738-37.828-34.529-14.998-1.03-25.21-7.6828-28.564-18.607-0.84436-2.7502-2.0022-4.7715-2.8106-4.9629zm0 13.635c1.0752 0.0675 2.155 0.99949 3.3711 2.8145 5.4172 8.0852 14.941 12.54 28.584 13.371 26.49 1.6134 38.653 19.262 26.521 38.48-6.0377 9.5643-10.384 10.681-58.477 10.48-48.093 0.20052-52.439-0.91615-58.477-10.48-12.132-19.218 0.0316-36.867 26.521-38.48 13.643-0.83096 23.167-5.2859 28.584-13.371 1.216-1.815 2.2959-2.7469 3.3711-2.8145zm-83.369 70.076c-1.1636 0.0821-2.4445 1.7249-3.9277 4.9336-5.9887 12.955-19.821 20.718-41.328 21.441l-11.25 0.37695v6l11.75-0.65821c10.516-0.44306 14.707-1.1724 25.965-4.5176 3.9063-1.1607 13.403-8.806 15.27-12.293 2.0599-3.849 4.8085-3.107 10.059 2.7188 11.998 13.314 19.444 14.748 76.832 14.75 57.388-0.002 64.834-1.4363 76.832-14.75 5.2501-5.8258 7.9987-6.5678 10.059-2.7188 1.8662 3.4869 11.363 11.132 15.27 12.293 11.258 3.3452 15.448 4.0745 25.965 4.5176l11.75 0.65821v-6l-11.25-0.37695c-21.507-0.72318-35.339-8.4863-41.328-21.441-1.4832-3.2086-2.7641-4.8515-3.9277-4.9336s-2.2102 1.395-3.2207 4.4277c-2.0448 6.1364-7.8368 13.53-15.492 16.141-16.167 5.5134-40.602 7.9422-64.656 7.7383-24.054 0.20392-48.489-2.2249-64.656-7.7383-7.6554-2.6106-13.447-10.004-15.492-16.141-1.0106-3.0327-2.0571-4.5098-3.2207-4.4277z"/>
<use id="use4201" xlink:href="#path4160" transform="translate(279.75)" height="100%" width="100%" y="0" x="0"/>
<use id="use4203" xlink:href="#path4160" transform="translate(559.5)" height="100%" width="100%" y="0" x="0"/>
<use id="use4205" xlink:href="#path4160" transform="translate(839.25)" height="100%" width="100%" y="0" x="0"/>
<use id="use4207" xlink:href="#path4147" transform="matrix(-1 0 0 1 2149 0)" height="100%" width="100%" y="0" x="0"/>
<use id="use4209" xlink:href="#path4160" transform="matrix(0 -1 1 0 165.39 1144.4)" height="100%" width="100%" y="0" x="0"/>
<use id="use4211" xlink:href="#path4160" transform="matrix(0 -1 1 0 165.39 2543.1)" height="100%" width="100%" y="0" x="0"/>
<use id="use4213" xlink:href="#path4160" transform="matrix(0 -1 1 0 165.39 2263.4)" height="100%" width="100%" y="0" x="0"/>
<use id="use4215" xlink:href="#path4160" transform="matrix(0 -1 1 0 165.39 1983.6)" height="100%" width="100%" y="0" x="0"/>
<use id="use4217" xlink:href="#path4160" transform="matrix(0 -1 1 0 165.39 1703.9)" height="100%" width="100%" y="0" x="0"/>
<use id="use4219" xlink:href="#path4160" transform="matrix(0 -1 1 0 165.39 1424.1)" height="100%" width="100%" y="0" x="0"/>
<use id="use4233" xlink:href="#path4147" transform="matrix(1 0 0 -1 .0000014466 2377.7)" height="100%" width="100%" y="0" x="0"/>
<use id="use4235" xlink:href="#path4160" transform="matrix(1 0 0 -1 -.00781 2377.7)" height="100%" width="100%" y="0" x="0"/>
<use id="use4237" xlink:href="#path4160" transform="matrix(1 0 0 -1 839.24 2377.7)" height="100%" width="100%" y="0" x="0"/>
<use id="use4239" xlink:href="#path4160" transform="matrix(1 0 0 -1 559.49 2377.7)" height="100%" width="100%" y="0" x="0"/>
<use id="use4241" xlink:href="#path4160" transform="matrix(1 0 0 -1 279.74 2377.7)" height="100%" width="100%" y="0" x="0"/>
<use id="use4253" xlink:href="#path4147" transform="matrix(-1 0 0 -1 2149 2377.7)" height="100%" width="100%" y="0" x="0"/>
<use id="use4255" xlink:href="#path4160" transform="matrix(0 1 -1 0 1983.6 -165.4)" height="100%" width="100%" y="0" x="0"/>
<use id="use4257" xlink:href="#path4160" transform="matrix(0 1 -1 0 1983.6 953.6)" height="100%" width="100%" y="0" x="0"/>
<use id="use4259" xlink:href="#path4160" transform="matrix(0 1 -1 0 1983.6 394.1)" height="100%" width="100%" y="0" x="0"/>
<use id="use4261" xlink:href="#path4160" transform="matrix(0 1 -1 0 1983.6 114.35)" height="100%" width="100%" y="0" x="0"/>
<use id="use4263" xlink:href="#path4160" transform="matrix(0 1 -1 0 1983.6 673.85)" height="100%" width="100%" y="0" x="0"/>
<use id="use4265" xlink:href="#path4160" transform="matrix(0 1 -1 0 1983.6 1233.4)" height="100%" width="100%" y="0" x="0"/>
</g>
</g>
</svg>
